<?xml version="1.0" encoding="UTF-8" standalone="no"?>
<svg
   xmlns:dc="http://purl.org/dc/elements/1.1/"
   xmlns:cc="http://creativecommons.org/ns#"
   xmlns:rdf="http://www.w3.org/1999/02/22-rdf-syntax-ns#"
   xmlns:svg="http://www.w3.org/2000/svg"
   xmlns="http://www.w3.org/2000/svg"
   xmlns:sodipodi="http://sodipodi.sourceforge.net/DTD/sodipodi-0.dtd"
   xmlns:inkscape="http://www.inkscape.org/namespaces/inkscape"
   inkscape:export-ydpi="2.28"
   inkscape:export-xdpi="2.28"
   inkscape:export-filename="C:\Projects\home_finance\img\gray_gear.png"
   inkscape:version="1.0 (4035a4fb49, 2020-05-01)"
   sodipodi:docname="gear-svgrepo-com.svg"
   id="svg6"
   version="1.1"
   viewBox="0 0 50 50"
   height="800px"
   width="800px"
   fill="#000000">
  <metadata
     id="metadata12">
    <rdf:RDF>
      <cc:Work
         rdf:about="">
        <dc:format>image/svg+xml</dc:format>
        <dc:type
           rdf:resource="http://purl.org/dc/dcmitype/StillImage" />
      </cc:Work>
    </rdf:RDF>
  </metadata>
  <defs
     id="defs10" />
  <sodipodi:namedview
     inkscape:current-layer="svg6"
     inkscape:window-maximized="0"
     inkscape:window-y="156"
     inkscape:window-x="649"
     inkscape:cy="400"
     inkscape:cx="400"
     inkscape:zoom="1.26"
     showgrid="false"
     id="namedview8"
     inkscape:window-height="1035"
     inkscape:window-width="1581"
     inkscape:pageshadow="2"
     inkscape:pageopacity="0"
     guidetolerance="10"
     gridtolerance="10"
     objecttolerance="10"
     borderopacity="1"
     bordercolor="#666666"
     pagecolor="#ffffff" />
  <g
     transform="rotate(23.036091,24.95,25)"
     id="g1435">
    <path
       style="fill:#acacac;fill-opacity:1;stroke:#000000;stroke-width:0.0625px;stroke-linecap:butt;stroke-linejoin:miter;stroke-opacity:1"
       d="m 6.9444444,22.916667 4.4642856,-1.289683 1.339286,-3.521825 -1.686508,-4.36508 2.480159,-2.579365 4.216269,1.686509 3.621032,-1.24008 1.587302,-4.6626986 4.117063,0.2480162 1.24008,4.1666664 3.373016,1.339286 4.563492,-1.686508 2.777777,2.97619 -1.835317,3.621032 1.537698,3.918651 4.06746,1.140873 0.09921,3.968254 -3.621032,1.240079 -1.934523,4.166667 1.488095,4.414682 -2.232143,2.232143 -3.918651,-1.388888 -4.414683,1.289682 -1.289682,4.365079 -4.265873,-0.297619 -1.438492,-4.117063 -3.769841,-1.438493 -3.819445,2.083334 -2.678571,-2.728175 1.835318,-4.365079 -1.488096,-3.720238 -4.3650795,-1.587302 z"
       id="path1408" />
    <ellipse
       style="fill:#fefefe;fill-opacity:1;stroke:none;stroke-width:1.65354;stroke-linecap:round;stroke-miterlimit:14.9;stroke-opacity:1"
       id="path1429"
       cx="24.950399"
       cy="24.900791"
       rx="6.299603"
       ry="6.2003965" />
    <path
       d="m 25,32.611111 c -4.228395,0 -7.611111,-3.382716 -7.611111,-7.611111 0,-4.228395 3.382716,-7.611111 7.611111,-7.611111 4.228395,0 7.611111,3.382716 7.611111,7.611111 0,4.228395 -3.382716,7.611111 -7.611111,7.611111 z m 0,-13.530864 c -3.298148,0 -5.919753,2.621605 -5.919753,5.919753 0,3.298148 2.621605,5.919753 5.919753,5.919753 3.298148,0 5.919753,-2.621605 5.919753,-5.919753 0,-3.298148 -2.621605,-5.919753 -5.919753,-5.919753 z"
       id="path2"
       style="fill:#595959;fill-opacity:1;stroke:none;stroke-width:0.999999;stroke-opacity:1" />
    <path
       d="m 27.7,44 h -5.4 l -1.5,-4.6 c -1,-0.3 -2,-0.7 -2.9,-1.2 l -4.4,2.2 -3.8,-3.8 2.2,-4.4 C 11.4,31.3 11,30.3 10.7,29.3 L 6,27.7 v -5.4 l 4.6,-1.5 c 0.3,-1 0.7,-2 1.2,-2.9 l -2.2,-4.4 3.8,-3.8 4.4,2.2 c 0.9,-0.5 1.9,-0.9 2.9,-1.2 L 22.3,6 h 5.4 l 1.5,4.6 c 1,0.3 2,0.7 2.9,1.2 l 4.4,-2.2 3.8,3.8 -2.2,4.4 c 0.5,0.9 0.9,1.9 1.2,2.9 l 4.6,1.5 v 5.4 l -4.6,1.5 c -0.3,1 -0.7,2 -1.2,2.9 l 2.2,4.4 -3.8,3.8 -4.4,-2.2 c -0.9,0.5 -1.9,0.9 -2.9,1.2 z m -4,-2 h 2.6 l 1.4,-4.3 0.5,-0.1 c 1.2,-0.3 2.3,-0.8 3.4,-1.4 l 0.5,-0.3 4,2 1.8,-1.8 -2,-4 0.3,-0.5 c 0.6,-1 1.1,-2.2 1.4,-3.4 l 0.1,-0.5 4.3,-1.4 v -2.6 l -4.3,-1.4 -0.1,-0.5 c -0.3,-1.2 -0.8,-2.3 -1.4,-3.4 l -0.3,-0.5 2,-4 -1.8,-1.8 -4,2 -0.5,-0.3 C 30.5,13.2 29.4,12.7 28.2,12.4 L 27.7,12.3 26.3,8 h -2.6 l -1.4,4.3 -0.5,0.1 c -1.2,0.3 -2.3,0.8 -3.4,1.4 l -0.5,0.3 -4,-2 -1.8,1.8 2,4 -0.3,0.5 c -0.6,1 -1.1,2.2 -1.4,3.4 L 12.3,22.3 8,23.7 v 2.6 l 4.3,1.4 0.1,0.5 c 0.3,1.2 0.8,2.3 1.4,3.4 l 0.3,0.5 -2,4 1.8,1.8 4,-2 0.5,0.3 c 1.1,0.6 2.2,1.1 3.4,1.4 l 0.5,0.1 z"
       id="path4"
       style="fill:#595959;fill-opacity:1" />
  </g>
</svg>
